<svg xmlns="http://www.w3.org/2000/svg" viewBox="0 0 52.835 12.335" height="46.62" width="199.692"><path d="M42.948.31l-.024 7.395 2.953-.118.118-2.056 2.315 2.197 2.22-2.055s-1.582-1.3-1.322-1.465c.26-.165 1.157-1.511 1.157-1.511L47.79.169zM32.79 2.65L35.222.286l2.645.047s2.386 2.292 2.292 2.386c-.095.095-1.984 5.245-1.984 5.245s-3.166-.26-3.26-.26c-.095 0-2.15-2.552-2.15-2.552z" fill="#fff"/><path d="M24.261.334V3.17l1.489.189.07 4.252 2.694.071.283-4.488s1.677.141 1.63-.024c-.047-.165-.213-2.882-.354-2.882-.142 0-5.812.047-5.812.047z" fill="#fff" stroke="#000" stroke-width=".265"/><path d="M16.064 2.815l2.48-2.48L21.143.24l-.047 5.764-2.74 2.386-2.221-.662zM10.064.169l2.81.023v7.63H10.04zM2.788.216L.283 2.673.19 5.366l2.291 2.74s4.914.19 4.843.024c-.07-.165-.094-4.418-.094-4.418L5.032.216z" fill="#fff"/><g style="line-height:1.25" aria-label="Gifter" font-weight="400" font-size="40" font-family="Sudbury Basin" letter-spacing="0" word-spacing="0" fill="#5a3b5d"><path style="-inkscape-font-specification:'Sudbury Basin'" d="M6.801 7.435V3.526H4.503v1.598H2.826V2.826h2.298V.516H2.826l-2.31 2.31v2.298l2.31 2.311zM0 5.335v-2.72L2.615 0h3.05L9.39 7.21v4.914H4.728L2.126 9.522zM9.831 12.124zm2.827-4.689V.515H10.36v6.92zm-2.827.529V0H13.2l2.047 4.226v7.898h-3.288zM15.8 12.124zm5.137-7V3.526h-2.31v-.7h2.31V.516h-2.31l-2.312 2.31v4.61h2.311V5.123zM15.8 7.964v-5.35L18.415 0h3.05l2.048 4.226v5.587h-2.298v2.31h-3.289zM23.847 12.124zm6.062-9.298V.516h-5.534v2.31h1.611v4.61h2.312v-4.61zM25.47 7.964v-1.48l-1.624-3.13V0h6.59l2.06 4.226v3.275h-1.624v4.623h-3.275zM32.54 12.124zm9.997-5.362l-1.81 1.81v3.552h-3.46l-2.601-2.602-2.126-4.187v-2.72L35.168 0h2.72l2.589 2.575zm-2.8-4.187l-2.06-2.06h-2.298l-2.311 2.311v2.298l2.311 2.311h2.76v-2.31h-.95zm-2.826.251l-1.532 1.532V2.826zM42.6 12.124zm4.556-9.298l-1.73 1.73v-1.73zm2.88 0L47.736.516h-4.622v6.92h2.311v-2.88l2.866 2.88 1.73-1.73-1.426-1.427zm2.8 4.187l-.978.99.95 1.902-2.416 2.43-2.377-2.39v2.179h-3.289L42.6 7.964V0h5.335l2.84 2.826z"/></g></svg>